<svg xmlns="http://www.w3.org/2000/svg" width="44.939" height="39.219" viewBox="0 0 44.939 39.219"><path d="M79.16,45.53a1.151,1.151,0,0,1-.008.227c-.008.2-.027.394-.053.591-.019.178-.045.367-.08.545a.6.6,0,0,0-.019.095,9.645,9.645,0,0,1-1.011,2.83l-.246.451A9.588,9.588,0,0,1,75.9,52.477L56.477,69.516a9.745,9.745,0,0,1-3.481,2,9.768,9.768,0,0,1-3.576-7.561,10.059,10.059,0,0,1,.159-1.777l22.9-7.754a9.724,9.724,0,0,0,5.372-4.4c.08-.133.152-.265.22-.405s.14-.28.2-.42a4.578,4.578,0,0,0,.178-.424c.061-.148.121-.292.167-.439a7.9,7.9,0,0,0,.265-.9c.034-.152.068-.318.1-.481A8.133,8.133,0,0,0,79.16,45.53Z" transform="translate(-35.245 -34.529)" fill="#008dc4"/><path d="M83.608,58.04,73.683,76.386A9.79,9.79,0,0,1,60.417,80.34a9.587,9.587,0,0,1-1.557-1.053,9.745,9.745,0,0,0,3.481-2L81.763,60.252A9.511,9.511,0,0,0,83.608,58.04Z" transform="translate(-41.109 -42.3)" fill="#7fc6e1"/><path d="M57.576,20.932c.034.027.068.061.1.087a2.184,2.184,0,0,0-.193-.148,2.788,2.788,0,0,0-.42-.318,4.98,4.98,0,0,0-.424-.292,3.486,3.486,0,0,0-.371-.227l-.1-.061c-.061-.042-.121-.072-.178-.106a2.464,2.464,0,0,0-.246-.121,3.255,3.255,0,0,0-.466-.22,7.948,7.948,0,0,0-1.439-.508,9.77,9.77,0,0,0-9.326,2.436L26.884,36.918A9.775,9.775,0,0,1,20.35,29.5a9.65,9.65,0,0,1,3.515-2.076l24.346-8.239a9.744,9.744,0,0,1,9.364,1.75Z" transform="translate(-17.187 -17.845)" fill="#008dc4"/><path d="M78.124,57.39a9.709,9.709,0,0,1-5.372,4.4l-22.9,7.758a9.735,9.735,0,0,1,1.027-2.875l2.7-4.993,15.69.6c.133.008.261.008.394.008A9.782,9.782,0,0,0,78.124,57.39Z" transform="translate(-35.512 -41.897)" fill="#044f95"/><path d="M51.391,17.312a5.8,5.8,0,0,1,.773.068,9.852,9.852,0,0,0-4.254.447L23.56,26.066a9.682,9.682,0,0,0-3.515,2.076A10,10,0,0,1,19.87,25.9a9.787,9.787,0,0,1,9.781-9.41c.125,0,.254,0,.379.008Z" transform="translate(-16.885 -16.49)" fill="#7fc6e1"/><path d="M37.6,41.483,55.226,26.02a9.583,9.583,0,0,0-1.784,2.356L45.968,42.191l-5.671-.22A9.489,9.489,0,0,1,37.6,41.483Z" transform="translate(-27.902 -22.41)" fill="#044f95"/><path d="M38.184,67.548l-2.7,4.993a9.843,9.843,0,0,0-1.027,2.875l-1.439.485a9.777,9.777,0,0,1-7.947-.773,9.737,9.737,0,0,1,3.277-7l1.47-1.292a9.488,9.488,0,0,0,2.7.485Z" transform="translate(-20.119 -47.767)" fill="#008dc4"/><path d="M37.858,98.346A9.789,9.789,0,0,1,25.05,89.038c0-.106,0-.212.008-.318A9.778,9.778,0,0,0,33,89.493l1.439-.485a10.058,10.058,0,0,0-.159,1.777A9.764,9.764,0,0,0,37.858,98.346Z" transform="translate(-20.107 -61.359)" fill="#7fc6e1"/><path d="M21.7,54.677l-1.47,1.292a9.751,9.751,0,0,0-3.277,7A9.779,9.779,0,0,1,15.163,47.26,9.77,9.77,0,0,0,21.7,54.677Z" transform="translate(-12 -35.604)" fill="#7fc6e1"/><path d="M86.513,25.859a9.053,9.053,0,0,1,.042,1.364,10.267,10.267,0,0,1-.167,1.5c-.034.167-.068.337-.1.5-.083.318-.174.629-.277.936-.057.152-.11.3-.174.458s-.125.3-.186.443-.14.292-.216.436-.152.284-.227.42A10.173,10.173,0,0,1,76.407,37c-.14,0-.269,0-.409-.008L59.69,36.367,67.459,22.01a10.031,10.031,0,0,1,1.852-2.451l.322-.3c2.417-2.58,6.186-3.068,9.368-2.231a10.8,10.8,0,0,1,1.5.527c.167.068.326.144.485.227s.3.152.443.235l.1.061c.133.076.258.152.386.235a4.831,4.831,0,0,1,.443.3,4.724,4.724,0,0,1,.436.333c.144.117.284.235.42.36a11.166,11.166,0,0,1,.788.8,4.7,4.7,0,0,1,.311.367c.1.125.2.258.292.379.061.083.125.167.178.25l.027.034a.254.254,0,0,0,.027.042l.1.144c.042.061.076.125.11.186l.1.152a.536.536,0,0,1,.042.068l.125.227.152.284.049.1c.019.034.034.068.057.11a.231.231,0,0,1,.034.076l.133.3a.074.074,0,0,1,.019.049c.015.034.027.061.042.1l.1.242.057.144a.374.374,0,0,1,.019.061c.015.049.034.1.049.144a.048.048,0,0,1,.015.042l.083.261.042.14c.034.117.068.227.1.345l.015.061c.034.133.061.269.091.4a.758.758,0,0,1,.019.1l.057.3.015.1a2.77,2.77,0,0,1,.042.3c.008.042.008.083.015.125a.167.167,0,0,1,.008.061A.1.1,0,0,1,86.513,25.859Z" transform="translate(-41.625 -16.589)" fill="#7fc342"/></svg>