<svg xmlns="http://www.w3.org/2000/svg" viewBox="0 0 250 48.57"  xmlnsV="https://vecta.io/nano"><path d="M86.05 26.64c.92 1.18 1.38 2.7 1.38 4.56 0 3.26-.93 5.53-2.79 6.81-1.86 1.29-4.08 1.93-6.66 1.93H67.74c-.71 0-1.31-.24-1.79-.72s-.72-1.07-.72-1.79V13.71c0-.71.24-1.31.72-1.79s1.07-.72 1.79-.72H78.1c5.2 0 7.81 2.44 7.81 7.31 0 1.23-.29 2.32-.88 3.26s-1.43 1.69-2.53 2.24c1.44.58 2.63 1.45 3.55 2.63zm-6.33-9.75c-.56-.56-1.35-.84-2.36-.84h-6.78v6.4h6.9a3.15 3.15 0 0 0 2.16-.82c.62-.55.92-1.29.92-2.22 0-1.12-.28-1.96-.84-2.52zm1.27 17.3c.73-.68 1.09-1.68 1.09-3 0-1.61-.42-2.67-1.27-3.16s-1.89-.74-3.12-.74h-7.11v7.92h7.4c1.28.01 2.29-.33 3.01-1.02zm14.95 5.03c-.48.48-1.08.72-1.79.72-.69 0-1.26-.24-1.73-.72s-.7-1.07-.7-1.79V12.07c0-.71.24-1.31.72-1.79s1.07-.72 1.79-.72a2.33 2.33 0 0 1 1.73.72c.47.48.7 1.07.7 1.79v25.36c0 .72-.24 1.31-.72 1.79zm23.78-20.52c.47.48.7 1.07.7 1.79v10.42c0 2.96-.82 5.27-2.44 6.94-1.63 1.67-3.95 2.5-6.97 2.5s-5.33-.83-6.94-2.5c-1.62-1.67-2.42-3.98-2.42-6.94V20.48c0-.71.23-1.31.7-1.79s1.05-.72 1.77-.72c.71 0 1.3.24 1.77.72s.7 1.07.7 1.79V30.9c0 1.67.37 2.91 1.11 3.71.74.81 1.85 1.21 3.33 1.21 1.51 0 2.63-.4 3.37-1.21s1.11-2.05 1.11-3.71V20.48c0-.71.23-1.31.7-1.79s1.05-.72 1.77-.72a2.3 2.3 0 0 1 1.74.73zm24.38 11.35a2.62 2.62 0 0 1-1.73.62h-13.56c.33 1.61 1.08 2.88 2.26 3.8a6.31 6.31 0 0 0 3.99 1.37c1.12 0 2-.1 2.63-.31.63-.2 1.13-.42 1.5-.66l.76-.47c.49-.25.96-.37 1.4-.37.58 0 1.07.2 1.48.62.41.41.62.89.62 1.44 0 .74-.38 1.41-1.15 2.01-.77.63-1.79 1.16-3.08 1.6a12.01 12.01 0 0 1-3.9.66c-2.3 0-4.31-.48-6.02-1.44s-3.03-2.28-3.97-3.96c-.93-1.68-1.4-3.58-1.4-5.68 0-2.35.49-4.42 1.48-6.2s2.29-3.14 3.9-4.08c1.62-.94 3.34-1.42 5.18-1.42 1.81 0 3.51.49 5.12 1.48 1.6.99 2.88 2.31 3.84 3.98a10.7 10.7 0 0 1 1.44 5.42c-.03.64-.29 1.18-.79 1.59zm-15.24-3.49h10.77v-.29c-.11-1.15-.67-2.13-1.68-2.96a5.32 5.32 0 0 0-3.45-1.23c-3.19 0-5.07 1.5-5.64 4.48zm19.33 12.7c-.42-.42-.64-1.03-.64-1.83v-.7c0-.79.21-1.4.64-1.83.42-.42 1.03-.64 1.83-.64h.53c.79 0 1.4.21 1.83.64s.64 1.03.64 1.83v.7c0 .79-.21 1.4-.64 1.83s-1.03.64-1.83.64h-.53c-.8 0-1.41-.21-1.83-.64z" fill="#044f95"/><path d="M169.74 18.9c1.11.29 2 .68 2.67 1.17s1.01 1.03 1.01 1.6c0 .3-.1.57-.31.82a.95.95 0 0 1-.76.37c-.27 0-.5-.05-.68-.16a3.32 3.32 0 0 1-.6-.49c-.36-.35-.7-.62-1.03-.78-.41-.19-.95-.35-1.62-.47s-1.39-.18-2.16-.18a7.7 7.7 0 0 0-4.13 1.15c-1.25.77-2.23 1.81-2.94 3.12s-1.07 2.76-1.07 4.35c0 1.64.34 3.12 1.03 4.43a7.78 7.78 0 0 0 2.86 3.1c1.22.75 2.61 1.13 4.17 1.13.99 0 1.77-.08 2.36-.25a8.88 8.88 0 0 0 1.75-.7c.19-.11.52-.35.99-.74.22-.19.41-.33.58-.43a.98.98 0 0 1 .53-.14c.33 0 .59.1.78.31s.29.47.29.8c0 .47-.33.96-.99 1.5-.66.53-1.56.99-2.71 1.37s-2.42.57-3.82.57c-2 0-3.78-.47-5.34-1.42-1.56-.94-2.77-2.25-3.64-3.92-.86-1.67-1.29-3.54-1.29-5.62 0-2 .44-3.82 1.31-5.48.88-1.66 2.11-2.98 3.7-3.96 1.59-.99 3.41-1.48 5.47-1.48 1.28 0 2.48.15 3.59.43z" fill="#1b85bc"/><path d="M179.3 39.59c-.23.23-.53.35-.88.35a1.19 1.19 0 0 1-.88-.35c-.23-.23-.35-.53-.35-.88V10.8a1.19 1.19 0 0 1 .35-.88c.23-.23.53-.35.88-.35a1.19 1.19 0 0 1 .88.35c.23.23.35.53.35.88v27.91c0 .35-.12.65-.35.88zm24.29-4.58a9.94 9.94 0 0 1-3.74 3.92c-1.59.94-3.36 1.42-5.3 1.42-1.95 0-3.71-.47-5.3-1.42a9.94 9.94 0 0 1-3.74-3.92c-.9-1.67-1.36-3.53-1.36-5.58s.45-3.91 1.36-5.58c.9-1.67 2.15-2.98 3.74-3.94s3.36-1.44 5.3-1.44c1.95 0 3.71.48 5.3 1.44a10.2 10.2 0 0 1 3.74 3.94c.9 1.67 1.36 3.53 1.36 5.58s-.45 3.91-1.36 5.58zM201.46 25c-.69-1.31-1.64-2.35-2.86-3.1s-2.57-1.13-4.05-1.13-2.82.38-4.03 1.13-2.16 1.79-2.86 3.1-1.05 2.79-1.05 4.43c0 1.61.35 3.08 1.05 4.39s1.65 2.35 2.86 3.1 2.55 1.13 4.03 1.13 2.83-.37 4.05-1.11 2.17-1.76 2.86-3.08c.68-1.31 1.03-2.79 1.03-4.43-.01-1.64-.35-3.12-1.03-4.43zm24.28-5.56c.23.23.35.53.35.88v11.57c0 2.68-.75 4.74-2.26 6.18s-3.59 2.15-6.25 2.15c-2.63 0-4.69-.72-6.18-2.15-1.49-1.44-2.24-3.49-2.24-6.18V20.32c0-.35.12-.65.35-.88s.53-.35.88-.35a1.19 1.19 0 0 1 .88.35c.23.23.35.53.35.88v11.57c0 1.97.52 3.47 1.56 4.49 1.04 1.03 2.51 1.54 4.4 1.54 1.92 0 3.4-.51 4.46-1.54 1.05-1.03 1.58-2.52 1.58-4.49V20.32c0-.35.12-.65.35-.88s.53-.35.88-.35a1.19 1.19 0 0 1 .89.35zm23.91-9.52c.23.23.35.53.35.88v27.91a1.19 1.19 0 0 1-.35.88c-.23.23-.53.35-.88.35a1.19 1.19 0 0 1-.88-.35c-.23-.23-.35-.53-.35-.88v-2.87c-.69 1.26-1.71 2.33-3.06 3.2-1.36.88-2.86 1.31-4.5 1.31-1.81 0-3.45-.47-4.91-1.42s-2.62-2.25-3.47-3.92-1.27-3.54-1.27-5.62c0-2.05.42-3.91 1.27-5.58s2.01-2.98 3.47-3.92c1.47-.94 3.09-1.42 4.87-1.42a8.63 8.63 0 0 1 4.48 1.21c1.37.81 2.41 1.85 3.12 3.14V10.8a1.19 1.19 0 0 1 .35-.88c.23-.23.53-.35.88-.35s.65.11.88.35zm-5.59 27.02c1.14-.74 2.03-1.77 2.67-3.1s.97-2.81.97-4.45c0-1.61-.32-3.08-.97-4.39-.64-1.31-1.53-2.35-2.67-3.1s-2.42-1.13-3.84-1.13-2.71.38-3.84 1.13c-1.14.75-2.03 1.79-2.67 3.1s-.97 2.78-.97 4.39c0 1.64.32 3.12.97 4.43.64 1.31 1.53 2.35 2.67 3.1s2.42 1.13 3.84 1.13 2.71-.37 3.84-1.11zM54.34 14.16c.01.09 0 .19-.01.28-.01.24-.03.48-.07.72-.02.22-.06.45-.1.67a.36.36 0 0 0-.02.11 11.54 11.54 0 0 1-1.24 3.45l-.3.55a11.67 11.67 0 0 1-2.25 2.69l-23.7 20.78c-1.28 1.14-2.73 1.94-4.25 2.43-2.81-2.29-4.36-5.71-4.36-9.22a12.34 12.34 0 0 1 .2-2.17L46.19 25a11.89 11.89 0 0 0 6.56-5.37c.1-.16.19-.32.27-.5.09-.17.17-.34.25-.51a8.11 8.11 0 0 0 .22-.52c.07-.18.15-.36.2-.54.13-.36.24-.72.33-1.1l.12-.58a10.78 10.78 0 0 0 .2-1.72z" fill="#008dc4"/><path d="M52.61 19.94L40.49 42.31c-3.14 5.8-10.39 7.95-16.2 4.82-.69-.37-1.32-.8-1.9-1.28 1.52-.5 2.97-1.3 4.25-2.43l23.71-20.78a11.72 11.72 0 0 0 2.26-2.7z" fill="#7fc6e1"/><path d="M50.03 4.51a1.2 1.2 0 0 1 .12.11c-.08-.07-.15-.13-.23-.18-.16-.15-.33-.28-.51-.39l-.52-.36c-.15-.11-.3-.19-.46-.28l-.12-.07c-.07-.05-.15-.09-.22-.13a2.1 2.1 0 0 0-.3-.15 4.23 4.23 0 0 0-.57-.27 9.71 9.71 0 0 0-1.76-.62c-4.06-1.09-8.4.06-11.38 2.97L12.56 24.01c-4.09-1.34-7.16-4.81-7.98-9.05 1.19-1.1 2.64-1.98 4.29-2.53L38.6 2.37c1.73-.58 3.49-.74 5.19-.54 2.3.28 4.47 1.21 6.24 2.68z" fill="#008dc4"/><path d="M52.75 19.64c-1.4 2.44-3.67 4.4-6.56 5.37l-27.96 9.46c.23-1.19.63-2.38 1.25-3.51l3.3-6.09 19.63.74a11.97 11.97 0 0 0 10.34-5.97z" fill="#044f95"/><path d="M42.85 1.75c.32.01.63.03.94.08-1.7-.19-3.46-.03-5.19.54L8.87 12.42c-1.65.55-3.1 1.43-4.29 2.53-.17-.88-.24-1.8-.21-2.74A11.94 11.94 0 0 1 16.31.74a7.06 7.06 0 0 1 .46.01l26.08 1z" fill="#7fc6e1"/><path d="M12.56 24.01L34.08 5.15c-.85.81-1.58 1.78-2.18 2.87l-9.13 16.84-6.92-.27a11.59 11.59 0 0 1-3.29-.58z" fill="#044f95"/><path d="M22.78 24.87l-3.3 6.09a11.91 11.91 0 0 0-1.25 3.51l-1.76.59c-3.36 1.12-6.85.67-9.7-.94a11.88 11.88 0 0 1 4-8.53l1.8-1.57c1.04.35 2.15.55 3.29.59l6.92.26z" fill="#008dc4"/><g fill="#7fc6e1"><path d="M22.4 45.85c-4.37 1.41-9.36.23-12.61-3.42-2.02-2.27-3.02-5.11-3.02-7.93 0-.13 0-.26.01-.39 2.85 1.62 6.35 2.06 9.7.94l1.76-.59c-.13.72-.2 1.44-.2 2.17a11.85 11.85 0 0 0 4.36 9.22z"/><path d="M12.56 24.01l-1.8 1.57a11.88 11.88 0 0 0-4 8.53c-2.47-1.4-4.45-3.68-5.42-6.58-.42-1.26-.63-2.54-.63-3.8a11.9 11.9 0 0 1 3.86-8.77c.83 4.23 3.91 7.71 7.99 9.05z"/></g><path d="M55.53 12.05c.06.55.08 1.1.05 1.66-.03.62-.09 1.23-.2 1.83l-.13.61-.34 1.14-.21.56-.23.54-.26.53-.28.51c-2.15 3.72-6.18 6.2-10.74 6.2-.17 0-.33 0-.5-.01l-19.91-.76 9.49-17.51c.62-1.14 1.39-2.14 2.26-2.99l.39-.36C37.87.85 42.47.26 46.36 1.28c.62.17 1.23.38 1.82.64.2.08.4.18.59.28.19.09.36.19.54.29l.13.08c.16.09.31.19.47.29.19.11.36.24.54.37a7.34 7.34 0 0 1 .53.4c.18.14.35.29.52.44a11 11 0 0 1 .96.97c.14.14.26.3.38.45.13.15.24.31.35.46a5.72 5.72 0 0 1 .22.3l.03.04c.01.02.02.03.03.05l.12.18.14.23.12.19c.02.03.03.05.05.08l.15.28.19.35.06.12c.03.04.04.08.07.13.02.03.03.06.04.09l.16.36c.02.03.03.04.03.06.02.04.03.08.05.12l.12.3.07.17c.01.03.02.05.03.08l.06.18c.02.02.02.03.02.05l.1.32.05.17.12.42.02.08c.04.16.08.33.11.49l.03.12.07.37.02.13c.03.13.04.24.05.37.01.05.01.1.02.15.01.03.01.05.01.08-.01 0-.01.02-.02.04z" fill="#7fc342"/></svg>