<svg xmlns="http://www.w3.org/2000/svg" width="245.168" height="47.093" viewBox="0 0 245.168 47.093"><g transform="translate(-12 -16.49)"><path d="M171.97,54.337a7.1,7.1,0,0,1,1.355,4.485q0,4.81-2.747,6.709a11.213,11.213,0,0,1-6.545,1.9H153.971a2.409,2.409,0,0,1-2.461-2.465V41.605a2.4,2.4,0,0,1,.705-1.76,2.376,2.376,0,0,1,1.756-.705h10.184q7.676,0,7.678,7.2a5.947,5.947,0,0,1-.869,3.211,6.019,6.019,0,0,1-2.484,2.2A8.162,8.162,0,0,1,171.97,54.337Zm-6.222-9.6a3.149,3.149,0,0,0-2.324-.828h-6.668v6.3h6.791a3.093,3.093,0,0,0,2.124-.81,2.772,2.772,0,0,0,.91-2.183A3.4,3.4,0,0,0,165.747,44.739ZM167,61.769a3.861,3.861,0,0,0,1.069-2.952c0-1.587-.418-2.629-1.251-3.111a6.015,6.015,0,0,0-3.07-.728h-6.991v7.8h7.273A4.121,4.121,0,0,0,167,61.769Z" transform="translate(-76.053 -12.347)" fill="#044f95"/><path d="M212.919,64.787a2.383,2.383,0,0,1-1.756.705,2.275,2.275,0,0,1-1.7-.705,2.418,2.418,0,0,1-.687-1.76V38.055a2.4,2.4,0,0,1,.705-1.76,2.376,2.376,0,0,1,1.756-.705,2.283,2.283,0,0,1,1.7.705,2.426,2.426,0,0,1,.687,1.76V63.032A2.394,2.394,0,0,1,212.919,64.787Z" transform="translate(-107.273 -10.412)" fill="#044f95"/><path d="M247.985,54.505a2.426,2.426,0,0,1,.687,1.76V66.531a9.364,9.364,0,0,1-2.406,6.832,9.133,9.133,0,0,1-6.85,2.465q-4.449,0-6.832-2.465a9.4,9.4,0,0,1-2.383-6.832V56.265a2.426,2.426,0,0,1,.687-1.76,2.494,2.494,0,0,1,3.475,0,2.426,2.426,0,0,1,.687,1.76V66.531a5.277,5.277,0,0,0,1.092,3.657,4.219,4.219,0,0,0,3.275,1.192,4.275,4.275,0,0,0,3.316-1.192,5.277,5.277,0,0,0,1.092-3.657V56.265a2.426,2.426,0,0,1,.687-1.76,2.494,2.494,0,0,1,3.475,0Z" transform="translate(-118.95 -20.339)" fill="#044f95"/><path d="M298.241,65.19a2.569,2.569,0,0,1-1.7.6H283.208a6.09,6.09,0,0,0,2.224,3.739,6.2,6.2,0,0,0,3.921,1.355,8.619,8.619,0,0,0,2.588-.3,6.734,6.734,0,0,0,1.474-.646c.364-.227.614-.382.746-.464a3.1,3.1,0,0,1,1.374-.364,1.986,1.986,0,0,1,1.456.6,1.939,1.939,0,0,1,.6,1.415,2.516,2.516,0,0,1-1.133,1.979,9.717,9.717,0,0,1-3.029,1.578,11.81,11.81,0,0,1-3.839.646,11.934,11.934,0,0,1-5.922-1.415,9.84,9.84,0,0,1-3.9-3.9,11.385,11.385,0,0,1-1.374-5.6,12.427,12.427,0,0,1,1.456-6.1,10.326,10.326,0,0,1,3.839-4.021,9.933,9.933,0,0,1,5.09-1.392,9.441,9.441,0,0,1,5.031,1.456,10.89,10.89,0,0,1,3.78,3.921,10.546,10.546,0,0,1,1.415,5.335A2.071,2.071,0,0,1,298.241,65.19Zm-14.992-3.434h10.589v-.282a4.187,4.187,0,0,0-1.656-2.911,5.237,5.237,0,0,0-3.393-1.214Q284.095,57.349,283.249,61.756Z" transform="translate(-145.226 -19.849)" fill="#044f95"/><path d="M330.1,93.982a2.438,2.438,0,0,1-.628-1.8v-.687a2.191,2.191,0,0,1,2.424-2.424h.528a2.191,2.191,0,0,1,2.424,2.424v.687a2.192,2.192,0,0,1-2.424,2.429h-.528A2.434,2.434,0,0,1,330.1,93.982Z" transform="translate(-173.066 -39.566)" fill="#044f95"/><path d="M360.871,55.3a7.754,7.754,0,0,1,2.629,1.151,2.015,2.015,0,0,1,.992,1.578,1.231,1.231,0,0,1-.3.81.936.936,0,0,1-.746.364,1.256,1.256,0,0,1-.669-.164,3.169,3.169,0,0,1-.587-.487,4.071,4.071,0,0,0-1.01-.769,6.921,6.921,0,0,0-1.6-.464,11.622,11.622,0,0,0-2.124-.182,7.6,7.6,0,0,0-4.062,1.133,8.017,8.017,0,0,0-2.888,3.07,8.841,8.841,0,0,0-1.051,4.285,9.332,9.332,0,0,0,1.01,4.367,7.555,7.555,0,0,0,6.909,4.162,6.492,6.492,0,0,0,5.013-1.656,4.1,4.1,0,0,1,.564-.423,1.089,1.089,0,0,1,1.292.164,1.112,1.112,0,0,1,.282.787,2.093,2.093,0,0,1-.969,1.474,8.457,8.457,0,0,1-2.665,1.355,11.821,11.821,0,0,1-3.757.564,9.916,9.916,0,0,1-5.254-1.4,9.475,9.475,0,0,1-3.575-3.857,11.859,11.859,0,0,1-1.274-5.536,11.385,11.385,0,0,1,1.292-5.395,9.942,9.942,0,0,1,9.015-5.354A13.893,13.893,0,0,1,360.871,55.3Z" transform="translate(-182.639 -20.928)" fill="#1b85bc"/><path d="M395.629,65.146a1.183,1.183,0,0,1-.869.346,1.165,1.165,0,0,1-.869-.346,1.179,1.179,0,0,1-.341-.869V36.794a1.175,1.175,0,0,1,1.21-1.214,1.165,1.165,0,0,1,.869.346,1.183,1.183,0,0,1,.346.869V64.277A1.183,1.183,0,0,1,395.629,65.146Z" transform="translate(-207.999 -10.407)" fill="#008dc4"/><path d="M427.748,71.154a9.849,9.849,0,0,1-3.68,3.857,10.427,10.427,0,0,1-10.425,0,9.85,9.85,0,0,1-3.68-3.857,11.994,11.994,0,0,1,0-10.989,10.081,10.081,0,0,1,17.785,0,11.993,11.993,0,0,1,0,10.989Zm-2.1-9.861a7.684,7.684,0,0,0-2.811-3.052,7.418,7.418,0,0,0-3.98-1.11,7.323,7.323,0,0,0-3.962,1.11,7.839,7.839,0,0,0-2.806,3.052,9.663,9.663,0,0,0,0,8.692,7.907,7.907,0,0,0,2.806,3.052,7.323,7.323,0,0,0,3.962,1.11,7.537,7.537,0,0,0,6.791-4.121,9.946,9.946,0,0,0,0-8.733Z" transform="translate(-216.22 -20.923)" fill="#008dc4"/><path d="M479,56.536a1.183,1.183,0,0,1,.346.869V68.8a8,8,0,0,1-2.224,6.081A8.535,8.535,0,0,1,470.973,77a8.4,8.4,0,0,1-6.081-2.12,8.052,8.052,0,0,1-2.2-6.081V57.4a1.165,1.165,0,0,1,.346-.869,1.183,1.183,0,0,1,.869-.346,1.165,1.165,0,0,1,.869.346,1.179,1.179,0,0,1,.341.869V68.8a5.329,5.329,0,0,0,5.863,5.94,6.022,6.022,0,0,0,4.385-1.515,5.9,5.9,0,0,0,1.556-4.426V57.4a1.165,1.165,0,0,1,.346-.869,1.259,1.259,0,0,1,1.733,0Z" transform="translate(-245.69 -21.642)" fill="#008dc4"/><path d="M527.448,35.926a1.182,1.182,0,0,1,.346.869V64.277a1.165,1.165,0,0,1-.346.869,1.183,1.183,0,0,1-.869.346,1.165,1.165,0,0,1-.869-.346,1.183,1.183,0,0,1-.346-.869V61.448a8.683,8.683,0,0,1-3.011,3.152,7.957,7.957,0,0,1-4.426,1.292,8.7,8.7,0,0,1-4.831-1.4,9.723,9.723,0,0,1-3.416-3.857,12.784,12.784,0,0,1,0-11.03,9.767,9.767,0,0,1,3.416-3.862,8.672,8.672,0,0,1,4.79-1.4,8.542,8.542,0,0,1,4.4,1.192,8.142,8.142,0,0,1,3.07,3.093V36.794a1.165,1.165,0,0,1,.346-.869,1.183,1.183,0,0,1,.869-.346A1.2,1.2,0,0,1,527.448,35.926Zm-5.495,26.614a7.393,7.393,0,0,0,2.629-3.052,9.937,9.937,0,0,0,.951-4.385,9.735,9.735,0,0,0-.951-4.326,7.564,7.564,0,0,0-2.629-3.052,6.991,6.991,0,0,0-7.56,0,7.6,7.6,0,0,0-2.629,3.052,9.71,9.71,0,0,0-.951,4.326,9.832,9.832,0,0,0,.951,4.367,7.565,7.565,0,0,0,2.629,3.052,6.689,6.689,0,0,0,3.78,1.11A6.781,6.781,0,0,0,521.953,62.539Z" transform="translate(-270.625 -10.407)" fill="#008dc4"/><g transform="translate(12 16.49)"><path d="M85.131,45.53a1.382,1.382,0,0,1-.009.273c-.009.241-.032.473-.064.71-.023.214-.055.441-.1.655a.718.718,0,0,0-.023.114,11.582,11.582,0,0,1-1.214,3.4l-.3.541a11.512,11.512,0,0,1-2.215,2.652L57.894,74.332a11.7,11.7,0,0,1-4.18,2.4A11.729,11.729,0,0,1,49.42,67.65a12.078,12.078,0,0,1,.191-2.133l27.5-9.311a11.677,11.677,0,0,0,6.45-5.281c.1-.159.182-.318.264-.487s.168-.337.246-.5a5.493,5.493,0,0,0,.214-.509c.073-.177.146-.35.2-.528a9.49,9.49,0,0,0,.318-1.078c.041-.182.082-.382.118-.578A9.766,9.766,0,0,0,85.131,45.53Z" transform="translate(-32.399 -32.321)" fill="#008dc4"/><path d="M88.576,58.04,76.659,80.069a11.756,11.756,0,0,1-15.929,4.749,11.512,11.512,0,0,1-1.869-1.265,11.7,11.7,0,0,0,4.18-2.4L86.361,60.7A11.42,11.42,0,0,0,88.576,58.04Z" transform="translate(-37.545 -39.141)" fill="#7fc6e1"/><path d="M65.049,21.386c.041.032.082.073.118.1a2.622,2.622,0,0,0-.232-.177,3.348,3.348,0,0,0-.5-.382,5.98,5.98,0,0,0-.509-.35,4.187,4.187,0,0,0-.446-.273l-.118-.073c-.073-.05-.146-.086-.214-.127a2.958,2.958,0,0,0-.3-.146,3.908,3.908,0,0,0-.559-.264,9.544,9.544,0,0,0-1.728-.61,11.731,11.731,0,0,0-11.2,2.925L28.2,40.581A11.738,11.738,0,0,1,20.35,31.67a11.588,11.588,0,0,1,4.221-2.493L53.8,19.284a11.7,11.7,0,0,1,11.244,2.1Z" transform="translate(-16.552 -17.679)" fill="#008dc4"/><path d="M83.8,57.39a11.658,11.658,0,0,1-6.45,5.281l-27.5,9.315a11.689,11.689,0,0,1,1.233-3.452l3.243-6,18.84.719c.159.009.314.009.473.009A11.746,11.746,0,0,0,83.8,57.39Z" transform="translate(-32.634 -38.786)" fill="#044f95"/><path d="M57.72,17.477a6.964,6.964,0,0,1,.928.082,11.829,11.829,0,0,0-5.108.537L24.3,27.989a11.626,11.626,0,0,0-4.221,2.493,12.012,12.012,0,0,1-.209-2.693,11.751,11.751,0,0,1,11.744-11.3c.15,0,.3,0,.455.009Z" transform="translate(-16.287 -16.49)" fill="#7fc6e1"/><path d="M37.6,44.587,58.765,26.02a11.507,11.507,0,0,0-2.142,2.829L47.648,45.438l-6.809-.264A11.4,11.4,0,0,1,37.6,44.587Z" transform="translate(-25.956 -21.685)" fill="#044f95"/><path d="M40.817,67.691l-3.243,6a11.819,11.819,0,0,0-1.233,3.452l-1.728.582a11.74,11.74,0,0,1-9.543-.928A11.692,11.692,0,0,1,29,68.391l1.765-1.551a11.392,11.392,0,0,0,3.239.582Z" transform="translate(-19.125 -43.938)" fill="#008dc4"/><path d="M40.429,100.278A11.754,11.754,0,0,1,25.05,89.1c0-.127,0-.255.009-.382a11.74,11.74,0,0,0,9.543.928l1.728-.582a12.078,12.078,0,0,0-.191,2.133A11.724,11.724,0,0,0,40.429,100.278Z" transform="translate(-19.114 -55.866)" fill="#7fc6e1"/><path d="M23.644,56.166,21.88,57.717a11.709,11.709,0,0,0-3.935,8.4A11.742,11.742,0,0,1,15.8,47.26,11.731,11.731,0,0,0,23.644,56.166Z" transform="translate(-12 -33.264)" fill="#7fc6e1"/><path d="M91.9,27.707a10.871,10.871,0,0,1,.05,1.637,12.328,12.328,0,0,1-.2,1.8c-.041.2-.082.4-.123.6-.1.382-.209.755-.332,1.123-.068.182-.132.364-.209.55s-.15.359-.223.532-.168.35-.259.523-.182.341-.273.5a12.215,12.215,0,0,1-10.566,6.1c-.168,0-.323,0-.491-.009L59.69,40.325l9.329-17.239a12.045,12.045,0,0,1,2.224-2.943l.387-.364c2.9-3.1,7.428-3.684,11.249-2.679a12.968,12.968,0,0,1,1.8.632c.2.082.391.173.582.273s.359.182.532.282l.123.073c.159.091.309.182.464.282a5.8,5.8,0,0,1,.532.364,5.672,5.672,0,0,1,.523.4c.173.141.341.282.5.432a13.408,13.408,0,0,1,.946.955,5.636,5.636,0,0,1,.373.441c.123.15.241.309.35.455.073.1.15.2.214.3l.032.041a.3.3,0,0,0,.032.05l.118.173c.05.073.091.15.132.223l.118.182a.644.644,0,0,1,.05.082l.15.273.182.341.059.118c.023.041.041.082.068.132a.278.278,0,0,1,.041.091l.159.359a.089.089,0,0,1,.023.059c.018.041.032.073.05.118l.118.291.068.173a.448.448,0,0,1,.023.073c.018.059.041.118.059.173a.058.058,0,0,1,.018.05l.1.314.05.168c.041.141.082.273.118.414l.018.073c.041.159.073.323.109.482a.91.91,0,0,1,.023.118l.068.364.018.123a3.325,3.325,0,0,1,.05.364c.009.05.009.1.018.15a.2.2,0,0,1,.009.073A.115.115,0,0,1,91.9,27.707Z" transform="translate(-37.998 -16.577)" fill="#7fc342"/></g></g></svg>